<?xml version="1.0" encoding="utf-8"?>
<!-- Generator: Adobe Illustrator 23.0.3, SVG Export Plug-In . SVG Version: 6.00 Build 0)  -->
<svg version="1.1" id="Capa_1" xmlns="http://www.w3.org/2000/svg" xmlns:xlink="http://www.w3.org/1999/xlink" x="0px" y="0px"
	 viewBox="0 0 230 145" style="enable-background:new 0 0 230 145;" xml:space="preserve">
<style type="text/css">
	.st0{fill:#80C4D6;}
	.st1{fill:#FAF1D6;}
</style>
<g>
	<path class="st0" d="M4.4,120.6c-29-55.7,88.2-169.6,197.7-96.7c41,27.3,43.9,128.2-51.7,102.9C76.2,107.2,36.1,181.4,4.4,120.6z"
		/>
	<path class="st1" d="M209.1,79.3c-0.3-0.5-0.7-0.7-1.3-0.7c-0.6,0-1.2,0.3-1.7,0.9c-1.7,2.1-3.8,3.8-6.2,5.1
		c-2.4,1.3-4.5,1.9-6.3,1.9c-2.9,0-4.8-0.9-5.9-2.8c4.9-1.2,8.3-2.8,10.4-4.9c2-2,3.1-4.5,3.1-7.3c0-2.4-0.7-4.4-2.2-5.8
		c-1.4-1.4-3.4-2.1-5.8-2.1c-2.7,0-5.1,0.7-7.2,2.2c-2.1,1.4-3.8,3.4-5,5.8c-1.2,2.5-1.8,5.1-1.8,7.9c0,0.9,0.1,1.7,0.2,2.5
		c-0.9,0.9-1.7,1.7-2.5,2.3c-1.4,1.1-2.9,1.6-4.7,1.6c-2.2,0-3.8-0.9-4.8-2.6c-1-1.7-1.5-4.7-1.5-9c0-2.1,0.1-4.1,0.2-6.1h7.5
		c4.7,0,7-1.4,7-4.3c0-0.8-0.1-1.3-0.4-1.6c-0.3-0.3-0.8-0.4-1.4-0.4h-5.6c4.5-4.5,6.7-9.6,6.7-15.5c0-2.3-0.5-4.2-1.5-5.8
		c-1-1.5-2.3-2.3-4.1-2.3c-2.3,0-4.5,1.1-6.4,3.2c-2,2.1-3.7,4.9-5.1,8.5c-1.4,3.5-2.5,7.5-3.3,11.9H154c4.5-4.5,6.7-9.6,6.7-15.5
		c0-2.3-0.5-4.2-1.5-5.8c-1-1.5-2.3-2.3-4.1-2.3c-2.3,0-4.5,1.1-6.4,3.2c-2,2.1-3.7,4.9-5.1,8.5c-1.4,3.5-2.5,7.5-3.3,11.9h-3.8
		c-1.9,0-2.8,1.2-2.8,3.5c0,1,0.2,1.7,0.6,2.2c0.4,0.5,1.3,0.7,2.5,0.7h2.5c-0.2,2.5-0.3,4.7-0.3,6.7c0,1.3,0.1,2.5,0.2,3.7
		c-0.4,0.1-0.8,0.4-1.2,0.8c-1.7,2.1-3.8,3.8-6.2,5.1c-2.4,1.3-4.5,1.9-6.3,1.9c-2.9,0-4.8-0.9-5.9-2.8c4.9-1.2,8.3-2.8,10.4-4.9
		c2-2,3.1-4.5,3.1-7.3c0-2.4-0.7-4.4-2.2-5.8c-1.4-1.4-3.4-2.1-5.8-2.1c-2.7,0-5.1,0.7-7.2,2.2c-2.1,1.4-3.8,3.4-5,5.8
		c-1.2,2.5-1.8,5.1-1.8,7.9c0,0.9,0.1,1.8,0.2,2.6c-1,1-1.8,1.8-2.5,2.3c-1.3,1-2.8,1.5-4.5,1.5c-1.1,0-1.9-0.4-2.6-1.1
		c-0.7-0.7-1.1-1.9-1.4-3.6c4.7-6.3,8.3-12.8,11.1-19.2c2.7-6.5,4.1-12.2,4.1-17.1c0-3.4-0.6-6-1.7-7.9c-1.1-1.8-2.7-2.8-4.7-2.8
		c-3.5,0-6.5,2.3-9.1,6.9c-2.5,4.6-4.5,10.1-5.7,16.6c-1.3,6.4-1.9,12.2-1.9,17.2c0,2,0.1,3.8,0.4,5.5c-1.5,1.8-2.8,3.1-3.7,4
		c-1.1,1-2.1,1.5-2.8,1.5c-0.5,0-0.9-0.2-1.2-0.6c-0.3-0.4-0.5-0.9-0.5-1.5c0-1.9,0.5-5.2,1.4-9.9c0.6-3.3,0.9-5.3,0.9-6.2
		c0-1.4-1-2.2-3-2.2c-0.9,0-1.9,0.1-2.7,0.2c-0.2-0.9-0.5-1.5-0.8-1.9c-0.3-0.3-0.9-0.5-1.8-0.5c-2.8,0-5.5,0.9-8.1,2.7
		c-2.5,1.8-4.6,4.2-6.1,7.1c-1.5,2.8-2.2,5.8-2.3,8.9c-0.9,0.9-1.7,1.7-2.4,2.2c-1.2,1-2.5,1.5-3.9,1.5c-0.6,0-1.3-0.1-2.2-0.4
		c1.2-1.7,2.2-3.6,2.9-5.6c0.7-2.1,1.1-4.2,1.1-6.4c0-3-0.7-5.4-2.2-7.3c-1.5-1.9-3.3-2.8-5.7-2.8c-1.4,0-2.8,0.4-4.1,1.1
		c-1.3,0.7-2.6,1.9-3.9,3.6c0-0.5-0.1-1.3-0.1-2.3c0-1-0.3-1.7-0.6-2.1c-0.4-0.3-1-0.5-1.9-0.5c-1.5,0-2.7,0.4-3.7,1.1
		c-1,0.7-1.5,1.6-1.4,2.8c0.1,2.3,0.1,6.5,0.1,12.6C30.5,86,27.7,92,25.8,97.3c-1.9,5.4-2.8,10.1-2.8,14.1c0,2.8,0.5,5.1,1.6,6.7
		c1.1,1.6,2.7,2.4,4.9,2.4c3.7,0,6.5-2.7,8.3-8c1.9-5.3,3.1-12,3.6-19.9c2.6,0,5-0.8,7.4-2.3c1.4,1.6,3.1,2.3,5.3,2.3
		c2.6,0,4.9-0.7,7-2.1c0.9-0.6,1.7-1.3,2.5-2c0.3,0.5,0.5,0.9,0.9,1.3c1.5,1.9,3.6,2.8,6.1,2.8c3.3,0,6-1.7,8.1-5.2
		c0.6,1.6,1.4,2.9,2.6,3.8c1.1,0.9,2.4,1.4,3.7,1.4c1.8,0,3.6-0.7,5.5-2.2c1.4-1.1,2.8-2.4,4.1-3.8c0.2,0.4,0.3,0.7,0.5,1
		c1.8,3.3,4.4,4.9,8.1,4.9c2.6,0,5-0.7,7.1-2.1c1.2-0.8,2.3-1.8,3.4-2.8c0.4,0.5,0.7,1,1.2,1.4c2.4,2.3,5.8,3.5,10.1,3.5
		c3.2,0,6.2-0.8,8.9-2.3c2.8-1.6,4.9-3.3,6.5-5.1c0.1-0.1,0.1-0.2,0.2-0.3c0.4,1.1,0.8,2.1,1.3,3c1.8,3.2,4.7,4.8,8.6,4.8
		c2,0,3.9-0.6,5.7-1.9c1.8-1.2,3.2-2.7,4.3-4.5c2,4.2,5.5,6.3,10.5,6.3c2.7,0,5.1-0.7,7.2-2.1c1.2-0.8,2.4-1.8,3.5-2.8
		c0.4,0.5,0.7,1,1.2,1.4c2.4,2.3,5.8,3.5,10.1,3.5c3.2,0,6.2-0.8,8.9-2.3c2.8-1.6,4.9-3.3,6.5-5.1c0.8-0.9,1.2-2.2,1.2-3.8
		C209.6,80.4,209.4,79.8,209.1,79.3z M168.5,53c0.7-2.7,1.4-4.9,2.2-6.4c0.8-1.5,1.5-2.3,2.1-2.3c0.9,0,1.4,1.2,1.4,3.6
		c0,2.1-0.6,4.5-1.8,7.1c-1.2,2.6-3,5-5.5,7.1C167.2,58.8,167.8,55.8,168.5,53z M32.9,107.2c-0.7,4.8-1.7,7.3-2.8,7.3
		c-0.4,0-0.8-0.4-1.1-1.1c-0.3-0.7-0.5-1.7-0.5-3c0-2.6,0.5-5.7,1.5-9.5c1-3.8,2.4-7.7,4.2-11.8C34.1,96.4,33.6,102.4,32.9,107.2z
		 M49,79.4c-0.7,1.9-1.7,3.5-3,4.8c-1.3,1.3-2.6,2.1-4.1,2.4c0-1,0.1-2.5,0.1-4.4c0-3.5,0-6.2,0.1-8c2.1-3.1,3.9-4.7,5.4-4.7
		c0.8,0,1.5,0.3,2,1c0.5,0.6,0.7,1.6,0.7,2.8C50.1,75.5,49.7,77.5,49,79.4z M77.3,80.5c-0.4,1.8-1,3.2-1.8,4.3
		c-0.8,1.1-1.7,1.6-2.6,1.6c-0.9,0-1.6-0.3-2.1-0.9c-0.5-0.6-0.8-1.6-0.8-2.8c0-2.3,0.4-4.5,1.3-6.6c0.9-2.1,2-3.7,3.5-5
		c1.5-1.3,3.1-1.9,4.8-1.9L77.3,80.5z M101.6,58.2c0.9-5.1,2-9.3,3.2-12.7c1.2-3.4,2.3-5.1,3.2-5.1c1.2,0,1.7,1.6,1.7,4.7
		c0,4-0.9,8.4-2.6,13.3c-1.7,4.8-4.1,9.7-7,14.5C100.2,68.1,100.7,63.2,101.6,58.2z M118.9,78.6c0-2.5,0.5-4.7,1.6-6.4
		c1.1-1.8,2.3-2.7,3.9-2.7c0.7,0,1.3,0.2,1.8,0.7c0.4,0.5,0.6,1.1,0.6,1.9c0,1.5-0.7,2.9-2.1,4c-1.4,1.2-3.3,2-5.8,2.6V78.6z
		 M149.3,53c0.7-2.7,1.4-4.9,2.2-6.4c0.8-1.5,1.5-2.3,2.1-2.3c0.9,0,1.4,1.2,1.4,3.6c0,2.1-0.6,4.5-1.8,7.1c-1.2,2.6-3,5-5.5,7.1
		C148,58.8,148.6,55.8,149.3,53z M158.7,79.8c-0.9,1.7-1.9,3.1-3.2,4.3c-1.2,1.2-2.5,1.7-3.7,1.7c-1.6,0-2.9-0.9-3.7-2.7
		c-0.9-1.8-1.3-4.8-1.3-8.9c0-2.1,0.1-4.1,0.2-6.1h11.7c-0.2,2.5-0.3,4.7-0.3,6.7C158.4,76.9,158.5,78.5,158.7,79.8z M186.8,78.6
		c0-2.5,0.5-4.7,1.6-6.4c1.1-1.8,2.3-2.7,3.9-2.7c0.7,0,1.3,0.2,1.8,0.7c0.4,0.5,0.6,1.1,0.6,1.9c0,1.5-0.7,2.9-2.1,4
		c-1.4,1.2-3.3,2-5.8,2.6V78.6z"/>
</g>
</svg>
