<?xml version="1.0" encoding="utf-8"?>
<!-- Generator: Adobe Illustrator 23.0.3, SVG Export Plug-In . SVG Version: 6.00 Build 0)  -->
<svg version="1.1" id="Capa_1" xmlns="http://www.w3.org/2000/svg" xmlns:xlink="http://www.w3.org/1999/xlink" x="0px" y="0px"
	 viewBox="0 0 349 157" style="enable-background:new 0 0 349 157;" xml:space="preserve">
<style type="text/css">
	.st0{fill:#CFCBBF;}
</style>
<g>
	<g>
		<path class="st0" d="M142.4,122.6c-0.9,0.8-1.9,1.4-3.1,1.8c-1.1,0.4-2.3,0.6-3.5,0.6c-0.9,0-1.8-0.1-2.7-0.4
			c-0.9-0.2-1.7-0.6-2.4-1c-0.8-0.4-1.4-1-2.1-1.6c-0.6-0.6-1.2-1.3-1.6-2.1c-0.4-0.8-0.8-1.6-1-2.4c-0.2-0.9-0.4-1.8-0.4-2.7
			s0.1-1.8,0.4-2.7c0.2-0.9,0.6-1.7,1-2.4c0.4-0.8,1-1.4,1.6-2.1c0.6-0.6,1.3-1.2,2.1-1.6s1.6-0.8,2.4-1c0.9-0.2,1.8-0.4,2.7-0.4
			c1.2,0,2.4,0.2,3.5,0.6s2.2,1,3.1,1.8l-2.1,3.4c-0.6-0.6-1.3-1.1-2.1-1.4s-1.6-0.5-2.5-0.5s-1.7,0.2-2.4,0.5
			c-0.8,0.3-1.4,0.8-2,1.3c-0.6,0.6-1,1.2-1.4,2c-0.3,0.8-0.5,1.6-0.5,2.4c0,0.9,0.2,1.7,0.5,2.5s0.8,1.4,1.4,2s1.2,1,2,1.4
			c0.8,0.3,1.6,0.5,2.4,0.5c0.5,0,1-0.1,1.4-0.2c0.5-0.1,0.9-0.3,1.3-0.5v-5.6h3.8v7.8H142.4z"/>
		<path class="st0" d="M161,124.6h-4v-4h-7.9v4h-3.9v-11.9c0-1.1,0.2-2.1,0.6-3.1c0.4-1,1-1.8,1.7-2.5s1.5-1.3,2.5-1.7
			c1-0.4,2-0.6,3.1-0.6s2.1,0.2,3.1,0.6s1.8,1,2.5,1.7s1.3,1.6,1.7,2.5c0.4,1,0.6,2,0.6,3.1L161,124.6L161,124.6z M157.1,116.7v-4
			c0-0.5-0.1-1.1-0.3-1.5c-0.2-0.5-0.5-0.9-0.8-1.3c-0.4-0.4-0.8-0.6-1.3-0.8c-0.5-0.2-1-0.3-1.5-0.3s-1.1,0.1-1.5,0.3
			c-0.5,0.2-0.9,0.5-1.3,0.8c-0.4,0.4-0.6,0.8-0.8,1.3s-0.3,1-0.3,1.5v4H157.1z"/>
		<path class="st0" d="M184.1,124.6h-3.9v-14.1c0-0.3-0.1-0.5-0.2-0.8c-0.1-0.2-0.2-0.4-0.4-0.6c-0.2-0.2-0.4-0.3-0.6-0.4
			s-0.5-0.2-0.8-0.2s-0.5,0.1-0.8,0.2c-0.2,0.1-0.4,0.2-0.6,0.4c-0.2,0.2-0.3,0.4-0.4,0.6s-0.2,0.5-0.2,0.8v14.1h-4v-14.1
			c0-0.3-0.1-0.5-0.2-0.8s-0.2-0.4-0.4-0.6c-0.2-0.2-0.4-0.3-0.6-0.4s-0.5-0.2-0.8-0.2s-0.5,0.1-0.8,0.2s-0.4,0.2-0.6,0.4
			c-0.2,0.2-0.3,0.4-0.4,0.6s-0.2,0.5-0.2,0.8v14.1h-4v-14.1c0-0.8,0.2-1.6,0.5-2.3c0.3-0.7,0.7-1.4,1.3-1.9c0.5-0.5,1.2-1,1.9-1.3
			c0.7-0.3,1.5-0.5,2.3-0.5c0.7,0,1.4,0.1,2.1,0.4s1.3,0.6,1.8,1.1c0.5-0.5,1.2-0.9,1.8-1.1c0.7-0.3,1.4-0.4,2.1-0.4
			c0.8,0,1.6,0.2,2.3,0.5c0.7,0.3,1.4,0.7,1.9,1.3c0.5,0.5,1,1.2,1.3,1.9c0.3,0.7,0.5,1.5,0.5,2.3v14.1H184.1z"/>
		<path class="st0" d="M201.2,124.6h-13.6v-19.8h13.6v4h-9.6v4h6.5v4h-6.5v3.9h9.6V124.6z"/>
		<path class="st0" d="M202.6,110.7c0-0.8,0.2-1.6,0.5-2.3c0.3-0.7,0.7-1.3,1.3-1.9c0.5-0.5,1.2-1,1.9-1.3s1.5-0.5,2.3-0.5h9.1v4
			h-9.1c-0.3,0-0.5,0.1-0.8,0.2s-0.4,0.2-0.6,0.4c-0.2,0.2-0.3,0.4-0.4,0.6s-0.2,0.5-0.2,0.8s0.1,0.5,0.2,0.8
			c0.1,0.2,0.2,0.5,0.4,0.6c0.2,0.2,0.4,0.3,0.6,0.4s0.5,0.2,0.8,0.2h4c0.8,0,1.6,0.2,2.3,0.5c0.7,0.3,1.4,0.7,1.9,1.3
			c0.5,0.5,1,1.2,1.3,1.9c0.3,0.7,0.5,1.5,0.5,2.3s-0.2,1.6-0.5,2.3c-0.3,0.7-0.7,1.3-1.3,1.9c-0.5,0.5-1.2,1-1.9,1.3
			c-0.7,0.3-1.5,0.5-2.3,0.5h-8.8v-4h8.8c0.3,0,0.5-0.1,0.8-0.2c0.2-0.1,0.4-0.2,0.6-0.4c0.2-0.2,0.3-0.4,0.4-0.6s0.2-0.5,0.2-0.8
			s-0.1-0.5-0.2-0.8c-0.1-0.2-0.2-0.4-0.4-0.6c-0.2-0.2-0.4-0.3-0.6-0.4s-0.5-0.2-0.8-0.2h-4c-0.8,0-1.6-0.2-2.3-0.5
			s-1.3-0.7-1.9-1.3c-0.5-0.5-1-1.2-1.3-1.9C202.7,112.3,202.6,111.6,202.6,110.7z"/>
	</g>
	<g>
		<path class="st0" d="M132.9,50.3c0-2.7-0.6-5.2-1.9-7.4c-1.3-2.2-3.2-4-5.9-5.4c-2.6-1.3-5.9-2-9.9-2c-4.1,0-8.2,0.9-12.3,2.8
			c-4.1,1.9-7.4,4.3-10.1,7.3c-2.6,3-3.9,6.1-3.9,9.3c0,2.6,0.7,4.5,2,5.6s3.3,1.7,6,1.7c0-0.1-0.2-0.5-0.5-1.2s-0.5-2-0.5-3.9
			c0-5.7,1.7-10.2,5.1-13.4c3.4-3.2,8.2-4.8,14.3-4.8c3.1,0,5.4,0.9,7,2.8c1.5,1.9,2.3,4.3,2.3,7.3c0,2.7-0.6,5.4-1.7,8.2
			c-1.1,2.8-2.7,5.1-4.8,7c-2,1.9-4.2,2.9-6.6,3.1l5.3-25L105.7,44L95.5,91.6h10.8l4.6-21.3h0.4c4.3,0,8.1-1,11.4-3
			c3.3-2,5.8-4.5,7.6-7.6C132,56.7,132.9,53.5,132.9,50.3z"/>
		<path class="st0" d="M139.9,60.1c1.6,0,3.1-0.6,4.2-1.7c1.2-1.1,1.8-2.5,1.8-4.2c0-1.6-0.6-3.1-1.8-4.2c-1.2-1.2-2.6-1.8-4.2-1.8
			s-3,0.6-4.2,1.8c-1.1,1.2-1.7,2.6-1.7,4.2c0,1.6,0.6,3,1.7,4.2C136.9,59.6,138.3,60.1,139.9,60.1z"/>
		<path class="st0" d="M159.6,81.7c0-0.7,0.1-1.4,0.3-2.2l8.6-36.7l-11.1,1.5l-8,33.8c-0.1,0.4-0.2,0.9-0.2,1.3
			c-0.6,1.4-1.3,2.7-2.3,3.6c-1.2,1.2-2.6,1.8-4,1.8c-1.1,0-1.9-0.2-2.4-0.6s-0.7-1.1-0.7-2.1c0-0.8,0.1-1.6,0.3-2.4l3.2-15.5h-10.8
			l-2.9,14.1c-0.4,2-0.6,3.6-0.6,4.9c0,3,0.7,5.2,2.2,6.7s3.4,2.2,5.8,2.2c2.8,0,5.7-1,8.6-2.9c1.3-0.8,2.4-2,3.5-3.5
			c0.3,1.7,1,3.1,2,4.1c1.5,1.5,3.4,2.3,5.8,2.3c2.1,0,4-0.7,5.6-2.1s2.5-3.3,2.7-5.8c-0.7,0.3-1.5,0.4-2.4,0.4
			C160.6,84.7,159.6,83.7,159.6,81.7z"/>
	</g>
	<g>
		<path class="st0" d="M220.7,50.3c0-2.7-0.6-5.2-1.9-7.4s-3.2-4-5.9-5.4c-2.6-1.3-5.9-2-9.9-2c-4.1,0-8.2,0.9-12.3,2.8
			c-4.1,1.9-7.4,4.3-10.1,7.3c-2.6,3-3.9,6.1-3.9,9.3c0,2.6,0.7,4.5,2,5.6s3.3,1.7,6,1.7c0-0.1-0.2-0.5-0.5-1.2s-0.5-2-0.5-3.9
			c0-5.7,1.7-10.2,5.1-13.4s8.2-4.8,14.3-4.8c3.1,0,5.4,0.9,7,2.8c1.5,1.9,2.3,4.3,2.3,7.3c0,2.7-0.6,5.4-1.7,8.2
			c-1.1,2.8-2.7,5.1-4.8,7c-2,1.9-4.2,2.9-6.6,3.1l5.3-25L193.5,44l-10.2,47.6h10.8l4.6-21.3h0.4c4.3,0,8.1-1,11.4-3
			s5.8-4.5,7.6-7.6C219.8,56.7,220.7,53.5,220.7,50.3z"/>
		<path class="st0" d="M227.7,60.1c1.6,0,3.1-0.6,4.2-1.7c1.2-1.1,1.8-2.5,1.8-4.2c0-1.6-0.6-3.1-1.8-4.2c-1.2-1.2-2.6-1.8-4.2-1.8
			s-3,0.6-4.2,1.8c-1.1,1.2-1.7,2.6-1.7,4.2c0,1.6,0.6,3,1.7,4.2C224.7,59.6,226.1,60.1,227.7,60.1z"/>
		<path class="st0" d="M247.4,81.7c0-0.7,0.1-1.4,0.3-2.2l8.6-36.7l-11.1,1.5l-8,33.8c-0.1,0.4-0.2,0.9-0.2,1.3
			c-0.6,1.4-1.3,2.7-2.3,3.6c-1.2,1.2-2.6,1.8-4,1.8c-1.1,0-1.9-0.2-2.4-0.6s-0.7-1.1-0.7-2.1c0-0.8,0.1-1.6,0.3-2.4l3.2-15.5h-10.8
			l-2.9,14.1c-0.4,2-0.6,3.6-0.6,4.9c0,3,0.7,5.2,2.2,6.7s3.4,2.2,5.8,2.2c2.8,0,5.7-1,8.6-2.9c1.3-0.8,2.4-2,3.5-3.5
			c0.3,1.7,1,3.1,2,4.1c1.5,1.5,3.4,2.3,5.8,2.3c2.1,0,4-0.7,5.6-2.1s2.5-3.3,2.7-5.8c-0.7,0.3-1.5,0.4-2.4,0.4
			C248.5,84.7,247.4,83.7,247.4,81.7z"/>
	</g>
	<g>
		<rect x="94.5" y="105" class="st0" width="20" height="4"/>
		<rect x="94.5" y="113" class="st0" width="20" height="4"/>
		<rect x="94.5" y="121" class="st0" width="20" height="4"/>
	</g>
	<g>
		<rect x="229.9" y="105" class="st0" width="20" height="4"/>
		<rect x="229.9" y="113" class="st0" width="20" height="4"/>
		<rect x="229.9" y="121" class="st0" width="20" height="4"/>
	</g>
</g>
</svg>
