<?xml version="1.0" encoding="utf-8"?>
<!-- Generator: Adobe Illustrator 23.0.3, SVG Export Plug-In . SVG Version: 6.00 Build 0)  -->
<svg version="1.1" id="Capa_1" xmlns="http://www.w3.org/2000/svg" xmlns:xlink="http://www.w3.org/1999/xlink" x="0px" y="0px"
	 viewBox="0 0 349 157" style="enable-background:new 0 0 349 157;" xml:space="preserve">
<style type="text/css">
	.st0{fill:#CFCBBF;}
</style>
<g>
	<g>
		<path class="st0" d="M233.4,128.6c-0.9,0.8-1.9,1.4-3.1,1.8c-1.1,0.4-2.3,0.6-3.5,0.6c-0.9,0-1.8-0.1-2.7-0.4
			c-0.9-0.2-1.7-0.6-2.4-1c-0.8-0.4-1.4-1-2.1-1.6c-0.6-0.6-1.2-1.3-1.6-2.1c-0.4-0.8-0.8-1.6-1-2.4c-0.2-0.9-0.4-1.8-0.4-2.7
			s0.1-1.8,0.4-2.7c0.2-0.9,0.6-1.7,1-2.4c0.4-0.8,1-1.4,1.6-2.1c0.6-0.6,1.3-1.2,2.1-1.6c0.8-0.4,1.6-0.8,2.4-1
			c0.9-0.2,1.8-0.4,2.7-0.4c1.2,0,2.4,0.2,3.5,0.6c1.1,0.4,2.2,1,3.1,1.8l-2.1,3.4c-0.6-0.6-1.3-1.1-2.1-1.4
			c-0.8-0.3-1.6-0.5-2.5-0.5c-0.9,0-1.7,0.2-2.4,0.5c-0.8,0.3-1.4,0.8-2,1.3c-0.6,0.6-1,1.2-1.4,2c-0.3,0.8-0.5,1.6-0.5,2.4
			c0,0.9,0.2,1.7,0.5,2.5c0.3,0.8,0.8,1.4,1.4,2s1.2,1,2,1.4c0.8,0.3,1.6,0.5,2.4,0.5c0.5,0,1-0.1,1.4-0.2c0.5-0.1,0.9-0.3,1.3-0.5
			v-5.6h3.8V128.6z"/>
		<path class="st0" d="M252,130.6h-4v-4h-7.9v4h-3.9v-11.9c0-1.1,0.2-2.1,0.6-3.1c0.4-1,1-1.8,1.7-2.5c0.7-0.7,1.5-1.3,2.5-1.7
			c1-0.4,2-0.6,3.1-0.6c1.1,0,2.1,0.2,3.1,0.6c1,0.4,1.8,1,2.5,1.7c0.7,0.7,1.3,1.6,1.7,2.5c0.4,1,0.6,2,0.6,3.1V130.6z
			 M248.1,122.7v-4c0-0.5-0.1-1.1-0.3-1.5c-0.2-0.5-0.5-0.9-0.8-1.3c-0.4-0.4-0.8-0.6-1.3-0.8c-0.5-0.2-1-0.3-1.5-0.3
			c-0.5,0-1.1,0.1-1.5,0.3c-0.5,0.2-0.9,0.5-1.3,0.8c-0.4,0.4-0.6,0.8-0.8,1.3c-0.2,0.5-0.3,1-0.3,1.5v4H248.1z"/>
		<path class="st0" d="M275.1,130.6h-3.9v-14.1c0-0.3-0.1-0.5-0.2-0.8c-0.1-0.2-0.2-0.4-0.4-0.6c-0.2-0.2-0.4-0.3-0.6-0.4
			s-0.5-0.2-0.8-0.2s-0.5,0.1-0.8,0.2c-0.2,0.1-0.4,0.2-0.6,0.4c-0.2,0.2-0.3,0.4-0.4,0.6s-0.2,0.5-0.2,0.8v14.1h-4v-14.1
			c0-0.3-0.1-0.5-0.2-0.8s-0.2-0.4-0.4-0.6c-0.2-0.2-0.4-0.3-0.6-0.4c-0.2-0.1-0.5-0.2-0.8-0.2s-0.5,0.1-0.8,0.2s-0.4,0.2-0.6,0.4
			c-0.2,0.2-0.3,0.4-0.4,0.6s-0.2,0.5-0.2,0.8v14.1h-4v-14.1c0-0.8,0.2-1.6,0.5-2.3c0.3-0.7,0.7-1.4,1.3-1.9c0.5-0.5,1.2-1,1.9-1.3
			c0.7-0.3,1.5-0.5,2.3-0.5c0.7,0,1.4,0.1,2.1,0.4c0.7,0.3,1.3,0.6,1.8,1.1c0.5-0.5,1.2-0.9,1.8-1.1c0.7-0.3,1.4-0.4,2.1-0.4
			c0.8,0,1.6,0.2,2.3,0.5c0.7,0.3,1.4,0.7,1.9,1.3c0.5,0.5,1,1.2,1.3,1.9c0.3,0.7,0.5,1.5,0.5,2.3V130.6z"/>
		<path class="st0" d="M292.2,130.6h-13.6v-19.8h13.6v4h-9.6v4h6.5v4h-6.5v3.9h9.6V130.6z"/>
		<path class="st0" d="M293.6,116.7c0-0.8,0.2-1.6,0.5-2.3c0.3-0.7,0.7-1.3,1.3-1.9c0.5-0.5,1.2-1,1.9-1.3s1.5-0.5,2.3-0.5h9.1v4
			h-9.1c-0.3,0-0.5,0.1-0.8,0.2s-0.4,0.2-0.6,0.4c-0.2,0.2-0.3,0.4-0.4,0.6s-0.2,0.5-0.2,0.8c0,0.3,0.1,0.5,0.2,0.8
			c0.1,0.2,0.2,0.5,0.4,0.6c0.2,0.2,0.4,0.3,0.6,0.4c0.2,0.1,0.5,0.2,0.8,0.2h4c0.8,0,1.6,0.2,2.3,0.5c0.7,0.3,1.4,0.7,1.9,1.3
			c0.5,0.5,1,1.2,1.3,1.9c0.3,0.7,0.5,1.5,0.5,2.3c0,0.8-0.2,1.6-0.5,2.3c-0.3,0.7-0.7,1.3-1.3,1.9c-0.5,0.5-1.2,1-1.9,1.3
			c-0.7,0.3-1.5,0.5-2.3,0.5h-8.8v-4h8.8c0.3,0,0.5-0.1,0.8-0.2c0.2-0.1,0.4-0.2,0.6-0.4c0.2-0.2,0.3-0.4,0.4-0.6
			c0.1-0.2,0.2-0.5,0.2-0.8c0-0.3-0.1-0.5-0.2-0.8c-0.1-0.2-0.2-0.4-0.4-0.6c-0.2-0.2-0.4-0.3-0.6-0.4c-0.2-0.1-0.5-0.2-0.8-0.2h-4
			c-0.8,0-1.6-0.2-2.3-0.5s-1.3-0.7-1.9-1.3c-0.5-0.5-1-1.2-1.3-1.9C293.7,118.3,293.6,117.6,293.6,116.7z"/>
	</g>
	<g>
		<path class="st0" d="M223.9,56.3c0-2.7-0.6-5.2-1.9-7.4c-1.3-2.2-3.2-4-5.9-5.4c-2.6-1.3-5.9-2-9.9-2c-4.1,0-8.2,0.9-12.3,2.8
			c-4.1,1.9-7.4,4.3-10.1,7.3c-2.6,3-3.9,6.1-3.9,9.3c0,2.6,0.7,4.5,2,5.6c1.3,1.1,3.3,1.7,6,1.7c0-0.1-0.2-0.5-0.5-1.2
			c-0.3-0.7-0.5-2-0.5-3.9c0-5.7,1.7-10.2,5.1-13.4c3.4-3.2,8.2-4.8,14.3-4.8c3.1,0,5.4,0.9,7,2.8c1.5,1.9,2.3,4.3,2.3,7.3
			c0,2.7-0.6,5.4-1.7,8.2c-1.1,2.8-2.7,5.1-4.8,7c-2,1.9-4.2,2.9-6.6,3.1l5.3-25L196.7,50l-10.2,47.6h10.8l4.6-21.3h0.4
			c4.3,0,8.1-1,11.4-3c3.3-2,5.8-4.5,7.6-7.6C223,62.7,223.9,59.5,223.9,56.3z"/>
		<path class="st0" d="M230.9,66.1c1.6,0,3.1-0.6,4.2-1.7c1.2-1.1,1.8-2.5,1.8-4.2c0-1.6-0.6-3.1-1.8-4.2c-1.2-1.2-2.6-1.8-4.2-1.8
			s-3,0.6-4.2,1.8c-1.1,1.2-1.7,2.6-1.7,4.2c0,1.6,0.6,3,1.7,4.2C227.9,65.6,229.3,66.1,230.9,66.1z"/>
		<path class="st0" d="M250.6,87.7c0-0.7,0.1-1.4,0.3-2.2l8.6-36.7l-11.1,1.5l-8,33.8c-0.1,0.4-0.2,0.9-0.2,1.3
			c-0.6,1.4-1.3,2.7-2.3,3.6c-1.2,1.2-2.6,1.8-4,1.8c-1.1,0-1.9-0.2-2.4-0.6c-0.5-0.4-0.7-1.1-0.7-2.1c0-0.8,0.1-1.6,0.3-2.4
			l3.2-15.5h-10.8l-2.9,14.1c-0.4,2-0.6,3.6-0.6,4.9c0,3,0.7,5.2,2.2,6.7c1.5,1.5,3.4,2.2,5.8,2.2c2.8,0,5.7-1,8.6-2.9
			c1.3-0.8,2.4-2,3.5-3.5c0.3,1.7,1,3.1,2,4.1c1.5,1.5,3.4,2.3,5.8,2.3c2.1,0,4-0.7,5.6-2.1c1.6-1.4,2.5-3.3,2.7-5.8
			c-0.7,0.3-1.5,0.4-2.4,0.4C251.6,90.7,250.6,89.7,250.6,87.7z"/>
	</g>
	<g>
		<path class="st0" d="M311.7,56.3c0-2.7-0.6-5.2-1.9-7.4c-1.3-2.2-3.2-4-5.9-5.4c-2.6-1.3-5.9-2-9.9-2c-4.1,0-8.2,0.9-12.3,2.8
			c-4.1,1.9-7.4,4.3-10.1,7.3c-2.6,3-3.9,6.1-3.9,9.3c0,2.6,0.7,4.5,2,5.6c1.3,1.1,3.3,1.7,6,1.7c0-0.1-0.2-0.5-0.5-1.2
			c-0.3-0.7-0.5-2-0.5-3.9c0-5.7,1.7-10.2,5.1-13.4c3.4-3.2,8.2-4.8,14.3-4.8c3.1,0,5.4,0.9,7,2.8c1.5,1.9,2.3,4.3,2.3,7.3
			c0,2.7-0.6,5.4-1.7,8.2c-1.1,2.8-2.7,5.1-4.8,7c-2,1.9-4.2,2.9-6.6,3.1l5.3-25L284.5,50l-10.2,47.6h10.8l4.6-21.3h0.4
			c4.3,0,8.1-1,11.4-3c3.3-2,5.8-4.5,7.6-7.6C310.8,62.7,311.7,59.5,311.7,56.3z"/>
		<path class="st0" d="M318.7,66.1c1.6,0,3.1-0.6,4.2-1.7c1.2-1.1,1.8-2.5,1.8-4.2c0-1.6-0.6-3.1-1.8-4.2c-1.2-1.2-2.6-1.8-4.2-1.8
			s-3,0.6-4.2,1.8c-1.1,1.2-1.7,2.6-1.7,4.2c0,1.6,0.6,3,1.7,4.2C315.7,65.6,317.1,66.1,318.7,66.1z"/>
		<path class="st0" d="M338.4,87.7c0-0.7,0.1-1.4,0.3-2.2l8.6-36.7l-11.1,1.5l-8,33.8c-0.1,0.4-0.2,0.9-0.2,1.3
			c-0.6,1.4-1.3,2.7-2.3,3.6c-1.2,1.2-2.6,1.8-4,1.8c-1.1,0-1.9-0.2-2.4-0.6c-0.5-0.4-0.7-1.1-0.7-2.1c0-0.8,0.1-1.6,0.3-2.4
			l3.2-15.5h-10.8l-2.9,14.1c-0.4,2-0.6,3.6-0.6,4.9c0,3,0.7,5.2,2.2,6.7c1.5,1.5,3.4,2.2,5.8,2.2c2.8,0,5.7-1,8.6-2.9
			c1.3-0.8,2.4-2,3.5-3.5c0.3,1.7,1,3.1,2,4.1c1.5,1.5,3.4,2.3,5.8,2.3c2.1,0,4-0.7,5.6-2.1c1.6-1.4,2.5-3.3,2.7-5.8
			c-0.7,0.3-1.5,0.4-2.4,0.4C339.5,90.7,338.4,89.7,338.4,87.7z"/>
	</g>
	<path class="st0" d="M90.9,23.5c-17.8,0-33.9,7-45.8,18.4c-12.6,12-20.4,29-20.4,47.8c0,36.5,29.6,66.2,66.2,66.2
		c22.6,0,42.5-11.3,54.4-28.5c7.4-10.7,11.8-23.7,11.8-37.6C157.1,53.1,127.5,23.5,90.9,23.5z M56.5,92.2c-1.8,2.6-4.8,4.3-8.2,4.3
		c-5.5,0-10-4.5-10-10c0-2.8,1.2-5.4,3.1-7.2c1.8-1.7,4.2-2.8,6.9-2.8c5.5,0,10,4.5,10,10C58.2,88.6,57.6,90.6,56.5,92.2z
		 M73.1,131.6c-0.9,1.2-2.3,2.1-3.9,2.1c-2.6,0-4.8-2.1-4.8-4.8c0-1.4,0.6-2.6,1.5-3.5c0.9-0.8,2-1.3,3.3-1.3c2.6,0,4.8,2.1,4.8,4.8
		C73.9,129.9,73.6,130.9,73.1,131.6z M106.8,115.9c-2.1,3.1-5.7,5.1-9.7,5.1c-6.5,0-11.8-5.3-11.8-11.8c0-3.4,1.4-6.4,3.6-8.5
		c2.1-2,5-3.3,8.2-3.3c6.5,0,11.8,5.3,11.8,11.8C108.9,111.7,108.1,114,106.8,115.9z M114.1,55c-1.9,2.7-5.1,4.5-8.7,4.5
		c-5.8,0-10.5-4.7-10.5-10.5c0-3,1.2-5.7,3.2-7.6c1.9-1.8,4.5-2.9,7.3-2.9c5.8,0,10.5,4.7,10.5,10.5C116,51.2,115.3,53.3,114.1,55z
		 M143.6,114.2c-0.9,1.2-2.3,2.1-3.9,2.1c-2.6,0-4.8-2.1-4.8-4.8c0-1.4,0.6-2.6,1.5-3.5c0.9-0.8,2-1.3,3.3-1.3
		c2.6,0,4.8,2.1,4.8,4.8C144.5,112.5,144.2,113.4,143.6,114.2z"/>
	<path class="st0" d="M19.6,1.1l2.3,8.5c0.8,2.8,2.9,5,5.7,5.7l8.5,2.3c0.7,0.2,0.7,1.2,0,1.4l-8.5,2.3c-2.8,0.8-5,2.9-5.7,5.7
		l-2.3,8.5c-0.2,0.7-1.2,0.7-1.4,0l-2.3-8.5c-0.8-2.8-2.9-5-5.7-5.7l-8.5-2.3c-0.7-0.2-0.7-1.2,0-1.4l8.5-2.3c2.8-0.8,5-2.9,5.7-5.7
		l2.3-8.5C18.4,0.3,19.4,0.3,19.6,1.1z"/>
	<path class="st0" d="M144.2,138.7l1,3.5c0.3,1.2,1.2,2.1,2.4,2.4l3.5,1c0.3,0.1,0.3,0.5,0,0.6l-3.5,1c-1.2,0.3-2.1,1.2-2.4,2.4
		l-1,3.5c-0.1,0.3-0.5,0.3-0.6,0l-1-3.5c-0.3-1.2-1.2-2.1-2.4-2.4l-3.5-1c-0.3-0.1-0.3-0.5,0-0.6l3.5-1c1.2-0.3,2.1-1.2,2.4-2.4
		l1-3.5C143.7,138.4,144.1,138.4,144.2,138.7z"/>
	<path class="st0" d="M150.7,27.2l1.2,4.6c0.4,1.5,1.6,2.7,3.1,3.1l4.6,1.2c0.4,0.1,0.4,0.7,0,0.8l-4.6,1.2
		c-1.5,0.4-2.7,1.6-3.1,3.1l-1.2,4.6c-0.1,0.4-0.7,0.4-0.8,0l-1.2-4.6c-0.4-1.5-1.6-2.7-3.1-3.1l-4.6-1.2c-0.4-0.1-0.4-0.7,0-0.8
		l4.6-1.2c1.5-0.4,2.7-1.6,3.1-3.1l1.2-4.6C150,26.8,150.6,26.8,150.7,27.2z"/>
	<g>
		<rect x="185.5" y="111" class="st0" width="20" height="4"/>
		<rect x="185.5" y="119" class="st0" width="20" height="4"/>
		<rect x="185.5" y="127" class="st0" width="20" height="4"/>
	</g>
	<g>
		<rect x="320.9" y="111" class="st0" width="20" height="4"/>
		<rect x="320.9" y="119" class="st0" width="20" height="4"/>
		<rect x="320.9" y="127" class="st0" width="20" height="4"/>
	</g>
</g>
</svg>
